# xmcd
#
# Track frame offsets:
#	150
#	19042
#	28432
#	36598
#	55657
#	68536
#	88609
#	106031
#	114919
#	124522
#	135675
#	152254
#	159219
#	185104
#
# Disc length: 2553 seconds
#
# Revision: 1
# Processed by: cddbd v1.5.2PL0 Copyright (c) Steve Scherf et al.
# Submitted via: EasyCDDAExtractor 6.2.0.3
#
DISCID=aa09f70e
DTITLE=Justin Wilson - Truckin' With Justin Wilson
DYEAR=1997
DGENRE=Comedy
TTITLE0=What A Cajun Is
TTITLE1=No Fellow Guests Needed
TTITLE2=Cooked Chicken That Could Still Fly
TTITLE3=Innovative Car Carrier Driver
TTITLE4=Doing A Friend A Favor
TTITLE5=Psychiatrist and The Gravel Hauler
TTITLE6=Ultimate Faith
TTITLE7=The President Isn't Coming
TTITLE8=The Lord Better Ride With Me
TTITLE9=Manicurist With Forced Scruples
TTITLE10=Fast Policeman With A Drunk Friend
TTITLE11=Backward Farmer
TTITLE12=Obedient Football Player
TTITLE13=Closing
EXTD=
EXTT0=
EXTT1=
EXTT2=
EXTT3=
EXTT4=
EXTT5=
EXTT6=
EXTT7=
EXTT8=
EXTT9=
EXTT10=
EXTT11=
EXTT12=
EXTT13=
PLAYORDER=
